<svg width="64" height="64" viewBox="0 0 64 64" fill="none" xmlns="http://www.w3.org/2000/svg">
<path d="M32 0C49.6731 0 64 14.3269 64 32C64 49.6731 49.6731 64 32 64C14.3269 64 0 49.6731 0 32C0 14.3269 14.3269 0 32 0Z" fill="#3B82F6"/>
<path d="M32 0C49.6731 0 64 14.3269 64 32C64 49.6731 49.6731 64 32 64C14.3269 64 0 49.6731 0 32C0 14.3269 14.3269 0 32 0Z" stroke="#E5E7EB"/>
<path d="M42.5 48H21.5V16H42.5V48Z" stroke="#E5E7EB"/>
<g clip-path="url(#clip0_2029_1165)">
<path d="M32 31C33.5913 31 35.1174 30.3679 36.2426 29.2426C37.3679 28.1174 38 26.5913 38 25C38 23.4087 37.3679 21.8826 36.2426 20.7574C35.1174 19.6321 33.5913 19 32 19C30.4087 19 28.8826 19.6321 27.7574 20.7574C26.6321 21.8826 26 23.4087 26 25C26 26.5913 26.6321 28.1174 27.7574 29.2426C28.8826 30.3679 30.4087 31 32 31ZM29.8578 33.25C25.2406 33.25 21.5 36.9906 21.5 41.6078C21.5 42.3766 22.1234 43 22.8922 43H41.1078C41.8766 43 42.5 42.3766 42.5 41.6078C42.5 36.9906 38.7594 33.25 34.1422 33.25H29.8578Z" fill="white"/>
</g>
<defs>
<clipPath id="clip0_2029_1165">
<path d="M21.5 19H42.5V43H21.5V19Z" fill="white"/>
</clipPath>
</defs>
</svg>
