<svg width="16" height="28" viewBox="0 0 16 28" fill="none" xmlns="http://www.w3.org/2000/svg">
<path d="M16 28H0.25V0H16V28Z" stroke="#E5E7EB"/>
<g clip-path="url(#clip0_2024_748)">
<g clip-path="url(#clip1_2024_748)">
<path d="M8.12506 4.25C7.50279 4.25 7.00006 4.75273 7.00006 5.375V6.05C4.43365 6.57031 2.50006 8.84141 2.50006 11.5625V12.2234C2.50006 13.8758 1.89186 15.4719 0.794981 16.7094L0.534825 17.0012C0.239513 17.3316 0.1692 17.8063 0.348497 18.2105C0.527794 18.6148 0.932091 18.875 1.37506 18.875H14.8751C15.318 18.875 15.7188 18.6148 15.9016 18.2105C16.0844 17.8063 16.0106 17.3316 15.7153 17.0012L15.4551 16.7094C14.3583 15.4719 13.7501 13.8793 13.7501 12.2234V11.5625C13.7501 8.84141 11.8165 6.57031 9.25006 6.05V5.375C9.25006 4.75273 8.74732 4.25 8.12506 4.25ZM9.71764 21.5926C10.1395 21.1707 10.3751 20.5977 10.3751 20H8.12506H5.87506C5.87506 20.5977 6.11061 21.1707 6.53248 21.5926C6.95436 22.0145 7.5274 22.25 8.12506 22.25C8.72272 22.25 9.29576 22.0145 9.71764 21.5926Z" fill="#6B7280"/>
</g>
</g>
<defs>
<clipPath id="clip0_2024_748">
<rect width="15.75" height="18" fill="white" transform="translate(0.25 4.25)"/>
</clipPath>
<clipPath id="clip1_2024_748">
<path d="M0.25 4.25H16V22.25H0.25V4.25Z" fill="white"/>
</clipPath>
</defs>
</svg>
