<svg width="15" height="16" viewBox="0 0 15 16" fill="none" xmlns="http://www.w3.org/2000/svg">
<g clip-path="url(#clip0_2024_278)">
<path d="M2.71875 1C1.61563 1 0.71875 1.89688 0.71875 3V13C0.71875 14.1031 1.61563 15 2.71875 15H12.7188C13.8219 15 14.7188 14.1031 14.7188 13V5.41563C14.7188 4.88438 14.5094 4.375 14.1344 4L11.7188 1.58438C11.3438 1.20938 10.8344 1 10.3031 1H2.71875ZM2.71875 4C2.71875 3.44688 3.16563 3 3.71875 3H9.71875C10.2719 3 10.7188 3.44688 10.7188 4V6C10.7188 6.55312 10.2719 7 9.71875 7H3.71875C3.16563 7 2.71875 6.55312 2.71875 6V4ZM7.71875 9C8.24918 9 8.75789 9.21071 9.13296 9.58579C9.50804 9.96086 9.71875 10.4696 9.71875 11C9.71875 11.5304 9.50804 12.0391 9.13296 12.4142C8.75789 12.7893 8.24918 13 7.71875 13C7.18832 13 6.67961 12.7893 6.30454 12.4142C5.92946 12.0391 5.71875 11.5304 5.71875 11C5.71875 10.4696 5.92946 9.96086 6.30454 9.58579C6.67961 9.21071 7.18832 9 7.71875 9Z" fill="white"/>
</g>
<defs>
<clipPath id="clip0_2024_278">
<path d="M0.71875 0H14.7188V16H0.71875V0Z" fill="white"/>
</clipPath>
</defs>
</svg>
